<svg width="65" height="64" viewBox="0 0 65 64" fill="none" xmlns="http://www.w3.org/2000/svg">
<ellipse cx="32.7059" cy="31.0452" rx="30.8174" ry="31.0452" fill="#141539"/>
<g clip-path="url(#clip0)">
<path d="M18.3088 33.6488C18.4783 33.5341 18.623 33.3843 18.733 33.2097C18.8791 32.9706 18.9212 32.7238 18.8542 32.511C18.4528 31.2547 17.2094 29.5686 16.2109 28.2121C15.7483 27.5867 15.13 26.7482 14.8823 26.2855C16.0902 26.855 19.8463 29.8874 21.2923 31.0558L21.3159 31.0744C22.3204 31.8861 22.4986 32.0261 22.5884 32.0712C23.2301 32.3882 23.7786 32.4167 24.2178 32.1551C24.6626 31.8914 24.9416 31.3348 25.0149 30.5714C25.0506 30.1884 24.5687 29.729 22.3072 27.755L22.2971 27.7466C21.0548 26.6617 18.1946 24.1632 17.9398 23.4329C18.945 23.537 23.4066 25.8899 25.3376 26.9091C26.6895 27.623 27.4669 28.0314 27.7277 28.1178C28.2744 28.299 29.0741 27.9798 29.5102 27.4086C29.8784 26.9367 29.9256 26.367 29.6506 25.8811C29.5251 25.2514 28.1807 24.4772 24.9285 22.7389C23.3803 21.9112 20.1837 20.2021 20.0284 19.7224C20.4241 19.2708 22.8465 19.7477 27.2304 21.1412C28.4586 21.5304 28.8299 21.6448 29.0319 21.639C29.6293 21.7696 30.4572 21.3512 30.8431 20.7205C30.8756 20.6674 30.905 20.6126 30.9312 20.5562C31.0946 20.1986 31.3275 19.2812 29.9457 18.521C27.8807 17.6784 26.2586 17.21 24.6842 16.7545L24.6525 16.7457C23.7095 16.4725 22.8186 16.215 21.8623 15.8835C19.6052 15.0992 18.6008 14.0529 18.5891 14.0409C18.4834 13.9372 18.4382 13.8462 18.4537 13.7699C18.4611 13.7379 18.474 13.7073 18.4918 13.6795C18.605 13.4952 18.9017 13.3111 19.07 13.2273C19.8537 13.3215 23.6345 13.7058 24.9979 12.5733L25.0477 12.533L25.079 12.4789C25.3963 11.9323 25.4787 11.4223 25.3242 10.9632C25.0806 10.2367 24.3331 9.92886 24.1787 9.87295L24.1183 9.86098C24.091 9.85825 21.3501 9.58428 20.3217 9.10804C19.4394 8.7004 18.0498 8.87197 16.9327 9.01041L16.8868 9.01608C16.5222 9.06097 16.2068 9.09887 15.9318 9.11033C12.8586 9.63161 9.32653 11.4091 9.29755 11.4233C8.79493 11.6008 8.41272 11.6252 8.18952 11.497C8.1039 11.4503 8.04094 11.3704 8.01407 11.2745L7.9963 11.1682L7.35118 11.3014L2.51712 19.2098L3.69163 20.5381C6.94682 24.3752 10.4697 26.5908 10.4944 26.603C10.616 26.6964 11.6201 27.8372 12.4321 28.7581L12.452 28.7826C14.0693 30.6176 16.0817 32.8999 16.9207 33.6633C17.2791 33.9906 17.8247 33.9851 18.3088 33.6488V33.6488Z" fill="url(#paint0_linear)"/>
</g>
<g clip-path="url(#clip1)">
<path d="M54.2839 27.4974L50.7955 30.5819C51.7389 31.0598 53.5579 31.6361 55.5419 30.3909C58.6698 28.4281 61.2774 22.9762 61.8763 21.6468L57.8097 13.1479C56.698 12.9362 51.7027 12.2547 45.5972 16.0853C45.5162 16.1831 44.1236 16.7866 44.7459 18.0866C45.043 18.7074 45.7715 18.91 46.3643 18.538C46.6664 18.3483 47.022 18.4488 47.1733 18.7646C47.3246 19.0804 47.2067 19.478 46.9048 19.6673L44.7472 21.0212C43.6512 21.709 43.9804 23.5061 45.2456 23.4671L46.9494 22.5745C47.2618 22.4074 47.6127 22.5542 47.738 22.8732C47.8678 23.2022 47.7062 23.5968 47.4043 23.7574C41.4195 26.9869 42.2597 26.633 38.3508 28.9124C36.9284 29.6326 37.8052 31.8969 39.2148 31.1593L48.5812 25.9543C48.8503 25.8144 49.1751 25.9049 49.3208 26.1801C49.4936 26.4827 49.4027 26.8194 49.1698 27.0381L41.5651 34.392C40.5016 35.3004 41.5979 36.9749 42.7039 36.0691L53.5705 26.5063C53.835 26.2666 54.2183 26.3054 54.4072 26.5825C54.454 26.6474 54.488 26.7228 54.5072 26.8044C54.5264 26.8859 54.5303 26.9719 54.5188 27.0572C54.5073 27.1425 54.4805 27.2255 54.4401 27.301C54.3997 27.3766 54.3465 27.4434 54.2835 27.4973L54.2839 27.4974Z" fill="url(#paint1_linear)"/>
</g>
<g clip-path="url(#clip2)">
<path d="M43.9677 45.8021C44.1425 41.6863 39.5412 41.5406 39.5412 41.5406C38.0353 37.8975 34.7346 39.9939 34.7346 39.9939C32.8355 36.3711 29.5691 39.1075 29.5691 39.1075C24.6515 37.9513 24.3459 42.0734 24.3459 42.0734C24.0702 43.3619 24.399 47.4934 24.399 47.4934C23.9425 45.0791 22.1047 46.8094 22.1047 46.8094C19.7603 49.6259 21.0404 51.4843 21.0404 51.4843C23.3254 54.9584 28.5507 59.4351 28.5507 59.4351C30.4649 60.8755 29.4653 61.8257 29.4653 61.8257L42.1676 61.2942L42.7425 58.9541C45.3361 53.4302 43.9677 45.8021 43.9677 45.8021V45.8021Z" fill="url(#paint2_linear)"/>
</g>
<path d="M63.2733 31.0452C63.2733 48.0547 49.5861 61.8404 32.7059 61.8404C15.8257 61.8404 2.1385 48.0547 2.1385 31.0452C2.1385 14.0358 15.8257 0.25 32.7059 0.25C49.5861 0.25 63.2733 14.0358 63.2733 31.0452Z" stroke="white" stroke-width="0.5"/>
<defs>
<linearGradient id="paint0_linear" x1="29.1605" y1="27.9063" x2="6.79555" y2="12.0869" gradientUnits="userSpaceOnUse">
<stop offset="0.0001" stop-color="#536EF4"/>
<stop offset="0.552083" stop-color="#879BFF"/>
<stop offset="1" stop-color="#5570F4"/>
</linearGradient>
<linearGradient id="paint1_linear" x1="46.3396" y1="37.6157" x2="53.8277" y2="11.9845" gradientUnits="userSpaceOnUse">
<stop stop-color="#ECA821"/>
<stop offset="0.546875" stop-color="#FFE1A8"/>
<stop offset="1" stop-color="#EC9E0F"/>
</linearGradient>
<linearGradient id="paint2_linear" x1="34.0574" y1="38.3372" x2="31.1309" y2="62.0314" gradientUnits="userSpaceOnUse">
<stop stop-color="#DC3E5C"/>
<stop offset="0.505208" stop-color="#FF7791"/>
<stop offset="1" stop-color="#DC2F4F"/>
</linearGradient>
<clipPath id="clip0">
<rect width="24.0249" height="27.6422" rx="12.0125" transform="matrix(-0.577471 0.816411 -0.812371 -0.58314 36.3701 20.3831)" fill="white"/>
</clipPath>
<clipPath id="clip1">
<rect width="21.1992" height="27.1492" rx="10.5996" transform="matrix(-0.959876 -0.280424 0.276639 -0.960974 56.5301 40.6872)" fill="white"/>
</clipPath>
<clipPath id="clip2">
<rect width="24.2066" height="24.3449" rx="12.1033" transform="matrix(0.992459 0.122578 -0.120812 0.992675 22.1645 36.8662)" fill="white"/>
</clipPath>
</defs>
</svg>
